<svg width="395" height="112" viewBox="0 0 395 112" fill="none" xmlns="http://www.w3.org/2000/svg">
<rect width="395" height="112" rx="16" fill="#0D2137"/>
<rect x="24" y="16" width="80" height="80" rx="14" fill="#0D2137"/>
<mask id="mask0_3_2" style="mask-type:alpha" maskUnits="userSpaceOnUse" x="24" y="16" width="43" height="53">
<path d="M24 68.3636V16H46.6023C50.4886 16 53.8892 16.767 56.804 18.3011C59.7188 19.8352 61.9858 21.9915 63.6051 24.7699C65.2244 27.5483 66.0341 30.7955 66.0341 34.5114C66.0341 38.2614 65.1989 41.5085 63.5284 44.2528C61.875 46.9972 59.5483 49.1108 56.5483 50.5938C53.5653 52.0767 50.0795 52.8182 46.0909 52.8182H32.5909V41.7727H43.2273C44.8977 41.7727 46.321 41.483 47.4972 40.9034C48.6903 40.3068 49.6023 39.4631 50.233 38.3722C50.8807 37.2812 51.2045 35.9943 51.2045 34.5114C51.2045 33.0114 50.8807 31.733 50.233 30.6761C49.6023 29.6023 48.6903 28.7841 47.4972 28.2216C46.321 27.642 44.8977 27.3523 43.2273 27.3523H38.2159V68.3636H24Z" fill="white"/>
</mask>
<g mask="url(#mask0_3_2)">
<rect x="5" y="2" width="27" height="80" fill="#006064"/>
<rect x="32" y="2" width="27" height="80" fill="#0097A7"/>
<rect x="59" y="2" width="26" height="80" fill="#FFB300"/>
</g>
<path d="M126.188 81.5V48.5H134.75V52.6875H134.938C135.25 51.875 135.708 51.1302 136.313 50.4531C136.917 49.7656 137.667 49.2187 138.562 48.8125C139.458 48.3958 140.5 48.1875 141.688 48.1875C143.271 48.1875 144.776 48.6094 146.203 49.4531C147.641 50.2969 148.807 51.625 149.703 53.4375C150.609 55.25 151.062 57.6042 151.062 60.5C151.062 63.2708 150.63 65.5677 149.766 67.3906C148.911 69.2135 147.766 70.5729 146.328 71.4688C144.901 72.3646 143.333 72.8125 141.625 72.8125C140.5 72.8125 139.495 72.6302 138.609 72.2656C137.734 71.8906 136.984 71.3854 136.359 70.75C135.745 70.1042 135.271 69.375 134.938 68.5625H134.813V81.5H126.188ZM134.625 60.5C134.625 61.6667 134.776 62.6771 135.078 63.5312C135.391 64.375 135.828 65.0312 136.391 65.5C136.964 65.9583 137.646 66.1875 138.438 66.1875C139.229 66.1875 139.901 65.9635 140.453 65.5156C141.016 65.0573 141.443 64.4062 141.734 63.5625C142.036 62.7083 142.188 61.6875 142.188 60.5C142.188 59.3125 142.036 58.2969 141.734 57.4531C141.443 56.599 141.016 55.9479 140.453 55.5C139.901 55.0417 139.229 54.8125 138.438 54.8125C137.646 54.8125 136.964 55.0417 136.391 55.5C135.828 55.9479 135.391 56.599 135.078 57.4531C134.776 58.2969 134.625 59.3125 134.625 60.5ZM161.363 72.875C159.832 72.875 158.478 72.625 157.301 72.125C156.134 71.6146 155.217 70.8437 154.551 69.8125C153.884 68.7812 153.551 67.4687 153.551 65.875C153.551 64.5625 153.775 63.4427 154.223 62.5156C154.671 61.5781 155.296 60.8125 156.098 60.2188C156.9 59.625 157.832 59.1719 158.895 58.8594C159.967 58.5469 161.124 58.3437 162.363 58.25C163.707 58.1458 164.785 58.0208 165.598 57.875C166.421 57.7187 167.014 57.5052 167.379 57.2344C167.743 56.9531 167.926 56.5833 167.926 56.125V56.0625C167.926 55.4375 167.686 54.9583 167.207 54.625C166.728 54.2917 166.113 54.125 165.363 54.125C164.54 54.125 163.868 54.3073 163.348 54.6719C162.837 55.026 162.53 55.5729 162.426 56.3125H154.488C154.592 54.8542 155.056 53.5104 155.879 52.2812C156.712 51.0417 157.926 50.0521 159.52 49.3125C161.113 48.5625 163.103 48.1875 165.488 48.1875C167.207 48.1875 168.749 48.3906 170.113 48.7969C171.478 49.1927 172.639 49.75 173.598 50.4687C174.556 51.1771 175.285 52.0104 175.785 52.9687C176.296 53.9167 176.551 54.9479 176.551 56.0625V72.5H168.488V69.125H168.301C167.822 70.0208 167.238 70.7448 166.551 71.2969C165.874 71.849 165.098 72.25 164.223 72.5C163.358 72.75 162.405 72.875 161.363 72.875ZM164.176 67.4375C164.832 67.4375 165.447 67.3021 166.02 67.0312C166.603 66.7604 167.077 66.3698 167.441 65.8594C167.806 65.349 167.988 64.7292 167.988 64V62C167.759 62.0937 167.514 62.1823 167.254 62.2656C167.004 62.349 166.733 62.4271 166.441 62.5C166.16 62.5729 165.858 62.6406 165.535 62.7031C165.223 62.7656 164.895 62.8229 164.551 62.875C163.884 62.9792 163.337 63.151 162.91 63.3906C162.493 63.6198 162.181 63.9062 161.973 64.25C161.775 64.5833 161.676 64.9583 161.676 65.375C161.676 66.0417 161.91 66.5521 162.379 66.9062C162.848 67.2604 163.447 67.4375 164.176 67.4375ZM180.672 72.5V48.5H189.047V53.0625H189.297C189.734 51.375 190.427 50.1406 191.375 49.3594C192.333 48.5781 193.453 48.1875 194.734 48.1875C195.109 48.1875 195.479 48.2188 195.844 48.2813C196.219 48.3333 196.578 48.4115 196.922 48.5156V55.875C196.495 55.7292 195.969 55.6198 195.344 55.5469C194.719 55.474 194.182 55.4375 193.734 55.4375C192.891 55.4375 192.13 55.6302 191.453 56.0156C190.786 56.3906 190.26 56.9219 189.875 57.6094C189.49 58.2865 189.297 59.0833 189.297 60V72.5H180.672ZM213.875 81.5V68.5625H213.75C213.417 69.375 212.938 70.1042 212.313 70.75C211.698 71.3854 210.948 71.8906 210.062 72.2656C209.188 72.6302 208.188 72.8125 207.063 72.8125C205.354 72.8125 203.781 72.3646 202.344 71.4688C200.917 70.5729 199.771 69.2135 198.906 67.3906C198.052 65.5677 197.625 63.2708 197.625 60.5C197.625 57.6042 198.073 55.25 198.969 53.4375C199.875 51.625 201.042 50.2969 202.469 49.4531C203.906 48.6094 205.417 48.1875 207 48.1875C208.188 48.1875 209.229 48.3958 210.125 48.8125C211.021 49.2187 211.771 49.7656 212.375 50.4531C212.979 51.1302 213.438 51.875 213.75 52.6875H213.938V48.5H222.5V81.5H213.875ZM210.25 66.1875C211.042 66.1875 211.719 65.9583 212.281 65.5C212.854 65.0312 213.292 64.375 213.594 63.5312C213.906 62.6771 214.062 61.6667 214.062 60.5C214.062 59.3125 213.906 58.2969 213.594 57.4531C213.292 56.599 212.854 55.9479 212.281 55.5C211.719 55.0417 211.042 54.8125 210.25 54.8125C209.458 54.8125 208.781 55.0417 208.219 55.5C207.667 55.9479 207.24 56.599 206.938 57.4531C206.646 58.2969 206.5 59.3125 206.5 60.5C206.5 61.6875 206.646 62.7083 206.938 63.5625C207.24 64.4062 207.667 65.0573 208.219 65.5156C208.781 65.9635 209.458 66.1875 210.25 66.1875ZM242.426 62V48.5H251.051V72.5H242.863V67.9375H242.613C242.092 69.4687 241.181 70.6667 239.879 71.5312C238.577 72.3854 237.03 72.8125 235.238 72.8125C233.561 72.8125 232.092 72.4271 230.832 71.6562C229.582 70.8854 228.608 69.8229 227.91 68.4687C227.223 67.1146 226.874 65.5625 226.863 63.8125V48.5H235.488V62C235.499 63.1875 235.801 64.1198 236.395 64.7969C236.999 65.474 237.842 65.8125 238.926 65.8125C239.645 65.8125 240.264 65.6615 240.785 65.3594C241.316 65.0469 241.723 64.6094 242.004 64.0469C242.296 63.474 242.436 62.7917 242.426 62ZM266.938 72.9375C264.375 72.9375 262.167 72.4479 260.313 71.4688C258.469 70.4792 257.047 69.0625 256.047 67.2187C255.057 65.3646 254.563 63.1458 254.563 60.5625C254.563 58.0833 255.063 55.9167 256.062 54.0625C257.063 52.2083 258.474 50.7656 260.297 49.7344C262.12 48.7031 264.271 48.1875 266.75 48.1875C268.563 48.1875 270.203 48.4688 271.672 49.0312C273.141 49.5937 274.396 50.4115 275.438 51.4844C276.479 52.5469 277.281 53.8385 277.844 55.3594C278.406 56.8802 278.688 58.5937 278.688 60.5V62.5H257.25V57.75H270.75C270.74 57.0625 270.562 56.4583 270.219 55.9375C269.885 55.4062 269.432 54.9948 268.859 54.7031C268.297 54.401 267.656 54.25 266.938 54.25C266.24 54.25 265.599 54.401 265.016 54.7031C264.432 54.9948 263.964 55.401 263.609 55.9219C263.266 56.4427 263.083 57.0521 263.063 57.75V62.875C263.063 63.6458 263.224 64.3333 263.547 64.9375C263.87 65.5417 264.333 66.0156 264.938 66.3594C265.542 66.7031 266.271 66.875 267.125 66.875C267.719 66.875 268.26 66.7917 268.75 66.625C269.25 66.4583 269.677 66.2187 270.031 65.9063C270.385 65.5833 270.646 65.1979 270.813 64.75H278.688C278.417 66.4167 277.776 67.8646 276.766 69.0937C275.755 70.3125 274.417 71.2604 272.75 71.9375C271.094 72.6042 269.156 72.9375 266.938 72.9375ZM296.52 48.5V54.75H280.707V48.5H296.52ZM283.77 42.75H292.395V64.7812C292.395 65.1146 292.452 65.3958 292.566 65.625C292.681 65.8437 292.858 66.0104 293.098 66.125C293.337 66.2292 293.645 66.2812 294.02 66.2812C294.28 66.2812 294.582 66.25 294.926 66.1875C295.28 66.125 295.54 66.0729 295.707 66.0312L296.957 72.0937C296.572 72.2083 296.02 72.349 295.301 72.5156C294.592 72.6823 293.749 72.7917 292.77 72.8438C290.79 72.9479 289.129 72.7448 287.785 72.2344C286.441 71.7135 285.431 70.8958 284.754 69.7812C284.077 68.6667 283.749 67.2708 283.77 65.5937V42.75ZM311.281 72.9375C308.719 72.9375 306.51 72.4479 304.656 71.4688C302.813 70.4792 301.391 69.0625 300.391 67.2187C299.401 65.3646 298.906 63.1458 298.906 60.5625C298.906 58.0833 299.406 55.9167 300.406 54.0625C301.406 52.2083 302.818 50.7656 304.641 49.7344C306.464 48.7031 308.615 48.1875 311.094 48.1875C312.906 48.1875 314.547 48.4688 316.016 49.0312C317.484 49.5937 318.74 50.4115 319.781 51.4844C320.823 52.5469 321.625 53.8385 322.188 55.3594C322.75 56.8802 323.031 58.5937 323.031 60.5V62.5H301.594V57.75H315.094C315.083 57.0625 314.906 56.4583 314.562 55.9375C314.229 55.4062 313.776 54.9948 313.203 54.7031C312.641 54.401 312 54.25 311.281 54.25C310.583 54.25 309.943 54.401 309.359 54.7031C308.776 54.9948 308.307 55.401 307.953 55.9219C307.609 56.4427 307.427 57.0521 307.406 57.75V62.875C307.406 63.6458 307.568 64.3333 307.891 64.9375C308.214 65.5417 308.677 66.0156 309.281 66.3594C309.885 66.7031 310.615 66.875 311.469 66.875C312.063 66.875 312.604 66.7917 313.094 66.625C313.594 66.4583 314.021 66.2187 314.375 65.9063C314.729 65.5833 314.99 65.1979 315.156 64.75H323.031C322.76 66.4167 322.12 67.8646 321.109 69.0937C320.099 70.3125 318.76 71.2604 317.094 71.9375C315.438 72.6042 313.5 72.9375 311.281 72.9375ZM338.051 72.9375C335.488 72.9375 333.28 72.4479 331.426 71.4688C329.582 70.4792 328.16 69.0625 327.16 67.2187C326.171 65.3646 325.676 63.1458 325.676 60.5625C325.676 58.0833 326.176 55.9167 327.176 54.0625C328.176 52.2083 329.587 50.7656 331.41 49.7344C333.233 48.7031 335.384 48.1875 337.863 48.1875C339.676 48.1875 341.316 48.4688 342.785 49.0312C344.254 49.5937 345.509 50.4115 346.551 51.4844C347.592 52.5469 348.395 53.8385 348.957 55.3594C349.52 56.8802 349.801 58.5937 349.801 60.5V62.5H328.363V57.75H341.863C341.853 57.0625 341.676 56.4583 341.332 55.9375C340.999 55.4062 340.546 54.9948 339.973 54.7031C339.41 54.401 338.77 54.25 338.051 54.25C337.353 54.25 336.712 54.401 336.129 54.7031C335.546 54.9948 335.077 55.401 334.723 55.9219C334.379 56.4427 334.197 57.0521 334.176 57.75V62.875C334.176 63.6458 334.337 64.3333 334.66 64.9375C334.983 65.5417 335.447 66.0156 336.051 66.3594C336.655 66.7031 337.384 66.875 338.238 66.875C338.832 66.875 339.374 66.7917 339.863 66.625C340.363 66.4583 340.79 66.2187 341.145 65.9063C341.499 65.5833 341.759 65.1979 341.926 64.75H349.801C349.53 66.4167 348.889 67.8646 347.879 69.0937C346.868 70.3125 345.53 71.2604 343.863 71.9375C342.207 72.6042 340.27 72.9375 338.051 72.9375ZM353.32 72.5V48.5H361.695V53.0625H361.945C362.383 51.375 363.076 50.1406 364.023 49.3594C364.982 48.5781 366.102 48.1875 367.383 48.1875C367.758 48.1875 368.128 48.2188 368.492 48.2813C368.867 48.3333 369.227 48.4115 369.57 48.5156V55.875C369.143 55.7292 368.617 55.6198 367.992 55.5469C367.367 55.474 366.831 55.4375 366.383 55.4375C365.539 55.4375 364.779 55.6302 364.102 56.0156C363.435 56.3906 362.909 56.9219 362.523 57.6094C362.138 58.2865 361.945 59.0833 361.945 60V72.5H353.32Z" fill="white"/>
</svg>
