<svg width="347" height="80" viewBox="0 0 347 80" fill="none" xmlns="http://www.w3.org/2000/svg">
<g clip-path="url(#clip0_2_2)">
<rect width="80" height="80" rx="14" fill="#0D2137"/>
<mask id="mask0_2_2" style="mask-type:alpha" maskUnits="userSpaceOnUse" x="0" y="0" width="43" height="53">
<path d="M0 52.3636V0H22.6023C26.4886 0 29.8892 0.767046 32.804 2.30114C35.7188 3.83523 37.9858 5.99148 39.6051 8.76989C41.2244 11.5483 42.0341 14.7955 42.0341 18.5114C42.0341 22.2614 41.1989 25.5085 39.5284 28.2528C37.875 30.9972 35.5483 33.1108 32.5483 34.5938C29.5653 36.0767 26.0795 36.8182 22.0909 36.8182H8.59091V25.7727H19.2273C20.8977 25.7727 22.321 25.483 23.4972 24.9034C24.6903 24.3068 25.6023 23.4631 26.233 22.3722C26.8807 21.2812 27.2045 19.9943 27.2045 18.5114C27.2045 17.0114 26.8807 15.733 26.233 14.6761C25.6023 13.6023 24.6903 12.7841 23.4972 12.2216C22.321 11.642 20.8977 11.3523 19.2273 11.3523H14.2159V52.3636H0Z" fill="white"/>
</mask>
<g mask="url(#mask0_2_2)">
<rect x="-19" y="-14" width="27" height="80" fill="#006064"/>
<rect x="8" y="-14" width="27" height="80" fill="#0097A7"/>
<rect x="35" y="-14" width="26" height="80" fill="#FFB300"/>
</g>
<path d="M102.188 65.5V32.5H110.75V36.6875H110.938C111.25 35.875 111.708 35.1302 112.313 34.4531C112.917 33.7656 113.667 33.2187 114.562 32.8125C115.458 32.3958 116.5 32.1875 117.688 32.1875C119.271 32.1875 120.776 32.6094 122.203 33.4531C123.641 34.2969 124.807 35.625 125.703 37.4375C126.609 39.25 127.062 41.6042 127.062 44.5C127.062 47.2708 126.63 49.5677 125.766 51.3906C124.911 53.2135 123.766 54.5729 122.328 55.4688C120.901 56.3646 119.333 56.8125 117.625 56.8125C116.5 56.8125 115.495 56.6302 114.609 56.2656C113.734 55.8906 112.984 55.3854 112.359 54.75C111.745 54.1042 111.271 53.375 110.938 52.5625H110.813V65.5H102.188ZM110.625 44.5C110.625 45.6667 110.776 46.6771 111.078 47.5312C111.391 48.375 111.828 49.0312 112.391 49.5C112.964 49.9583 113.646 50.1875 114.438 50.1875C115.229 50.1875 115.901 49.9635 116.453 49.5156C117.016 49.0573 117.443 48.4062 117.734 47.5625C118.036 46.7083 118.188 45.6875 118.188 44.5C118.188 43.3125 118.036 42.2969 117.734 41.4531C117.443 40.599 117.016 39.9479 116.453 39.5C115.901 39.0417 115.229 38.8125 114.438 38.8125C113.646 38.8125 112.964 39.0417 112.391 39.5C111.828 39.9479 111.391 40.599 111.078 41.4531C110.776 42.2969 110.625 43.3125 110.625 44.5ZM137.363 56.875C135.832 56.875 134.478 56.625 133.301 56.125C132.134 55.6146 131.217 54.8437 130.551 53.8125C129.884 52.7812 129.551 51.4687 129.551 49.875C129.551 48.5625 129.775 47.4427 130.223 46.5156C130.671 45.5781 131.296 44.8125 132.098 44.2188C132.9 43.625 133.832 43.1719 134.895 42.8594C135.967 42.5469 137.124 42.3437 138.363 42.25C139.707 42.1458 140.785 42.0208 141.598 41.875C142.421 41.7187 143.014 41.5052 143.379 41.2344C143.743 40.9531 143.926 40.5833 143.926 40.125V40.0625C143.926 39.4375 143.686 38.9583 143.207 38.625C142.728 38.2917 142.113 38.125 141.363 38.125C140.54 38.125 139.868 38.3073 139.348 38.6719C138.837 39.026 138.53 39.5729 138.426 40.3125H130.488C130.592 38.8542 131.056 37.5104 131.879 36.2812C132.712 35.0417 133.926 34.0521 135.52 33.3125C137.113 32.5625 139.103 32.1875 141.488 32.1875C143.207 32.1875 144.749 32.3906 146.113 32.7969C147.478 33.1927 148.639 33.75 149.598 34.4687C150.556 35.1771 151.285 36.0104 151.785 36.9687C152.296 37.9167 152.551 38.9479 152.551 40.0625V56.5H144.488V53.125H144.301C143.822 54.0208 143.238 54.7448 142.551 55.2969C141.874 55.849 141.098 56.25 140.223 56.5C139.358 56.75 138.405 56.875 137.363 56.875ZM140.176 51.4375C140.832 51.4375 141.447 51.3021 142.02 51.0312C142.603 50.7604 143.077 50.3698 143.441 49.8594C143.806 49.349 143.988 48.7292 143.988 48V46C143.759 46.0937 143.514 46.1823 143.254 46.2656C143.004 46.349 142.733 46.4271 142.441 46.5C142.16 46.5729 141.858 46.6406 141.535 46.7031C141.223 46.7656 140.895 46.8229 140.551 46.875C139.884 46.9792 139.337 47.151 138.91 47.3906C138.493 47.6198 138.181 47.9062 137.973 48.25C137.775 48.5833 137.676 48.9583 137.676 49.375C137.676 50.0417 137.91 50.5521 138.379 50.9062C138.848 51.2604 139.447 51.4375 140.176 51.4375ZM156.672 56.5V32.5H165.047V37.0625H165.297C165.734 35.375 166.427 34.1406 167.375 33.3594C168.333 32.5781 169.453 32.1875 170.734 32.1875C171.109 32.1875 171.479 32.2188 171.844 32.2813C172.219 32.3333 172.578 32.4115 172.922 32.5156V39.875C172.495 39.7292 171.969 39.6198 171.344 39.5469C170.719 39.474 170.182 39.4375 169.734 39.4375C168.891 39.4375 168.13 39.6302 167.453 40.0156C166.786 40.3906 166.26 40.9219 165.875 41.6094C165.49 42.2865 165.297 43.0833 165.297 44V56.5H156.672ZM189.875 65.5V52.5625H189.75C189.417 53.375 188.938 54.1042 188.313 54.75C187.698 55.3854 186.948 55.8906 186.062 56.2656C185.188 56.6302 184.188 56.8125 183.063 56.8125C181.354 56.8125 179.781 56.3646 178.344 55.4688C176.917 54.5729 175.771 53.2135 174.906 51.3906C174.052 49.5677 173.625 47.2708 173.625 44.5C173.625 41.6042 174.073 39.25 174.969 37.4375C175.875 35.625 177.042 34.2969 178.469 33.4531C179.906 32.6094 181.417 32.1875 183 32.1875C184.188 32.1875 185.229 32.3958 186.125 32.8125C187.021 33.2187 187.771 33.7656 188.375 34.4531C188.979 35.1302 189.438 35.875 189.75 36.6875H189.938V32.5H198.5V65.5H189.875ZM186.25 50.1875C187.042 50.1875 187.719 49.9583 188.281 49.5C188.854 49.0312 189.292 48.375 189.594 47.5312C189.906 46.6771 190.062 45.6667 190.062 44.5C190.062 43.3125 189.906 42.2969 189.594 41.4531C189.292 40.599 188.854 39.9479 188.281 39.5C187.719 39.0417 187.042 38.8125 186.25 38.8125C185.458 38.8125 184.781 39.0417 184.219 39.5C183.667 39.9479 183.24 40.599 182.938 41.4531C182.646 42.2969 182.5 43.3125 182.5 44.5C182.5 45.6875 182.646 46.7083 182.938 47.5625C183.24 48.4062 183.667 49.0573 184.219 49.5156C184.781 49.9635 185.458 50.1875 186.25 50.1875ZM218.426 46V32.5H227.051V56.5H218.863V51.9375H218.613C218.092 53.4687 217.181 54.6667 215.879 55.5312C214.577 56.3854 213.03 56.8125 211.238 56.8125C209.561 56.8125 208.092 56.4271 206.832 55.6562C205.582 54.8854 204.608 53.8229 203.91 52.4687C203.223 51.1146 202.874 49.5625 202.863 47.8125V32.5H211.488V46C211.499 47.1875 211.801 48.1198 212.395 48.7969C212.999 49.474 213.842 49.8125 214.926 49.8125C215.645 49.8125 216.264 49.6615 216.785 49.3594C217.316 49.0469 217.723 48.6094 218.004 48.0469C218.296 47.474 218.436 46.7917 218.426 46ZM242.938 56.9375C240.375 56.9375 238.167 56.4479 236.313 55.4688C234.469 54.4792 233.047 53.0625 232.047 51.2187C231.057 49.3646 230.563 47.1458 230.563 44.5625C230.563 42.0833 231.063 39.9167 232.062 38.0625C233.063 36.2083 234.474 34.7656 236.297 33.7344C238.12 32.7031 240.271 32.1875 242.75 32.1875C244.563 32.1875 246.203 32.4688 247.672 33.0312C249.141 33.5937 250.396 34.4115 251.438 35.4844C252.479 36.5469 253.281 37.8385 253.844 39.3594C254.406 40.8802 254.688 42.5937 254.688 44.5V46.5H233.25V41.75H246.75C246.74 41.0625 246.562 40.4583 246.219 39.9375C245.885 39.4062 245.432 38.9948 244.859 38.7031C244.297 38.401 243.656 38.25 242.938 38.25C242.24 38.25 241.599 38.401 241.016 38.7031C240.432 38.9948 239.964 39.401 239.609 39.9219C239.266 40.4427 239.083 41.0521 239.063 41.75V46.875C239.063 47.6458 239.224 48.3333 239.547 48.9375C239.87 49.5417 240.333 50.0156 240.938 50.3594C241.542 50.7031 242.271 50.875 243.125 50.875C243.719 50.875 244.26 50.7917 244.75 50.625C245.25 50.4583 245.677 50.2187 246.031 49.9063C246.385 49.5833 246.646 49.1979 246.813 48.75H254.688C254.417 50.4167 253.776 51.8646 252.766 53.0937C251.755 54.3125 250.417 55.2604 248.75 55.9375C247.094 56.6042 245.156 56.9375 242.938 56.9375ZM272.52 32.5V38.75H256.707V32.5H272.52ZM259.77 26.75H268.395V48.7812C268.395 49.1146 268.452 49.3958 268.566 49.625C268.681 49.8437 268.858 50.0104 269.098 50.125C269.337 50.2292 269.645 50.2812 270.02 50.2812C270.28 50.2812 270.582 50.25 270.926 50.1875C271.28 50.125 271.54 50.0729 271.707 50.0312L272.957 56.0937C272.572 56.2083 272.02 56.349 271.301 56.5156C270.592 56.6823 269.749 56.7917 268.77 56.8438C266.79 56.9479 265.129 56.7448 263.785 56.2344C262.441 55.7135 261.431 54.8958 260.754 53.7812C260.077 52.6667 259.749 51.2708 259.77 49.5937V26.75ZM287.281 56.9375C284.719 56.9375 282.51 56.4479 280.656 55.4688C278.813 54.4792 277.391 53.0625 276.391 51.2187C275.401 49.3646 274.906 47.1458 274.906 44.5625C274.906 42.0833 275.406 39.9167 276.406 38.0625C277.406 36.2083 278.818 34.7656 280.641 33.7344C282.464 32.7031 284.615 32.1875 287.094 32.1875C288.906 32.1875 290.547 32.4688 292.016 33.0312C293.484 33.5937 294.74 34.4115 295.781 35.4844C296.823 36.5469 297.625 37.8385 298.188 39.3594C298.75 40.8802 299.031 42.5937 299.031 44.5V46.5H277.594V41.75H291.094C291.083 41.0625 290.906 40.4583 290.562 39.9375C290.229 39.4062 289.776 38.9948 289.203 38.7031C288.641 38.401 288 38.25 287.281 38.25C286.583 38.25 285.943 38.401 285.359 38.7031C284.776 38.9948 284.307 39.401 283.953 39.9219C283.609 40.4427 283.427 41.0521 283.406 41.75V46.875C283.406 47.6458 283.568 48.3333 283.891 48.9375C284.214 49.5417 284.677 50.0156 285.281 50.3594C285.885 50.7031 286.615 50.875 287.469 50.875C288.063 50.875 288.604 50.7917 289.094 50.625C289.594 50.4583 290.021 50.2187 290.375 49.9063C290.729 49.5833 290.99 49.1979 291.156 48.75H299.031C298.76 50.4167 298.12 51.8646 297.109 53.0937C296.099 54.3125 294.76 55.2604 293.094 55.9375C291.438 56.6042 289.5 56.9375 287.281 56.9375ZM314.051 56.9375C311.488 56.9375 309.28 56.4479 307.426 55.4688C305.582 54.4792 304.16 53.0625 303.16 51.2187C302.171 49.3646 301.676 47.1458 301.676 44.5625C301.676 42.0833 302.176 39.9167 303.176 38.0625C304.176 36.2083 305.587 34.7656 307.41 33.7344C309.233 32.7031 311.384 32.1875 313.863 32.1875C315.676 32.1875 317.316 32.4688 318.785 33.0312C320.254 33.5937 321.509 34.4115 322.551 35.4844C323.592 36.5469 324.395 37.8385 324.957 39.3594C325.52 40.8802 325.801 42.5937 325.801 44.5V46.5H304.363V41.75H317.863C317.853 41.0625 317.676 40.4583 317.332 39.9375C316.999 39.4062 316.546 38.9948 315.973 38.7031C315.41 38.401 314.77 38.25 314.051 38.25C313.353 38.25 312.712 38.401 312.129 38.7031C311.546 38.9948 311.077 39.401 310.723 39.9219C310.379 40.4427 310.197 41.0521 310.176 41.75V46.875C310.176 47.6458 310.337 48.3333 310.66 48.9375C310.983 49.5417 311.447 50.0156 312.051 50.3594C312.655 50.7031 313.384 50.875 314.238 50.875C314.832 50.875 315.374 50.7917 315.863 50.625C316.363 50.4583 316.79 50.2187 317.145 49.9063C317.499 49.5833 317.759 49.1979 317.926 48.75H325.801C325.53 50.4167 324.889 51.8646 323.879 53.0937C322.868 54.3125 321.53 55.2604 319.863 55.9375C318.207 56.6042 316.27 56.9375 314.051 56.9375ZM329.32 56.5V32.5H337.695V37.0625H337.945C338.383 35.375 339.076 34.1406 340.023 33.3594C340.982 32.5781 342.102 32.1875 343.383 32.1875C343.758 32.1875 344.128 32.2188 344.492 32.2813C344.867 32.3333 345.227 32.4115 345.57 32.5156V39.875C345.143 39.7292 344.617 39.6198 343.992 39.5469C343.367 39.474 342.831 39.4375 342.383 39.4375C341.539 39.4375 340.779 39.6302 340.102 40.0156C339.435 40.3906 338.909 40.9219 338.523 41.6094C338.138 42.2865 337.945 43.0833 337.945 44V56.5H329.32Z" fill="#0D2137"/>
</g>
<defs>
<clipPath id="clip0_2_2">
<rect width="347" height="80" fill="white"/>
</clipPath>
</defs>
</svg>
