<svg width="80" height="80" viewBox="0 0 80 80" fill="none" xmlns="http://www.w3.org/2000/svg">
<rect width="80" height="80" rx="14" fill="#0D2137"/>
<mask id="mask0_1_2" style="mask-type:alpha" maskUnits="userSpaceOnUse" x="0" y="0" width="43" height="53">
<path d="M0 52.3636V0H22.6023C26.4886 0 29.8892 0.767046 32.804 2.30114C35.7188 3.83523 37.9858 5.99148 39.6051 8.76989C41.2244 11.5483 42.0341 14.7955 42.0341 18.5114C42.0341 22.2614 41.1989 25.5085 39.5284 28.2528C37.875 30.9972 35.5483 33.1108 32.5483 34.5938C29.5653 36.0767 26.0795 36.8182 22.0909 36.8182H8.59091V25.7727H19.2273C20.8977 25.7727 22.321 25.483 23.4972 24.9034C24.6903 24.3068 25.6023 23.4631 26.233 22.3722C26.8807 21.2812 27.2045 19.9943 27.2045 18.5114C27.2045 17.0114 26.8807 15.733 26.233 14.6761C25.6023 13.6023 24.6903 12.7841 23.4972 12.2216C22.321 11.642 20.8977 11.3523 19.2273 11.3523H14.2159V52.3636H0Z" fill="white"/>
</mask>
<g mask="url(#mask0_1_2)">
<rect x="-19" y="-14" width="27" height="80" fill="#006064"/>
<rect x="8" y="-14" width="27" height="80" fill="#0097A7"/>
<rect x="35" y="-14" width="26" height="80" fill="#FFB300"/>
</g>
</svg>
